<svg xmlns="http://www.w3.org/2000/svg" width="400" height="386.667"  xmlns:v="https://vecta.io/nano"><g stroke="#000"><path d="M3.069 65.212l16.111-8.439L143.849 372.09l-29.537 12.275z" stroke-width=".993"/><g fill="none"><path d="M130.423 303.81l-35.625-89.629L33.757 60.608s36.825-33.757 79.021-43.347l92.447 220.569c-27.805 18.676-40.985 24.306-74.802 65.979z" stroke-width=".198"/><g stroke-width=".1"><path d="M63.677 136.561s35.675-33.757 79.021-48.333M94.749 214.431c36.718-27.885 41.539-32.547 79.021-51.402M112.778 17.262s49.101-13.426 84.392-8.439l86.31 195.251m-78.255 33.757s54.087-39.894 78.254-33.757m-21.098 47.566s39.127-39.511 21.098-47.566"/><path d="M262.381 251.64s43.73-67.897-41.045-4.987"/><path d="M221.336 246.653s21.098 48.717 117.765-2.685c0 0 51.019-29.153 62.143-49.868L325.675 0s-11.892 24.167-88.228 40.278l40.278 148.836M142.698 88.228s52.169-19.563 84.008-14.96m-52.936 89.761s37.976-20.714 82.857-22.249m1.534-24.933s54.471-9.206 95.132-44.881"/><path d="M277.725 189.114s56.005-14.193 98.585-59.074"/><path d="M261.997 33.757l27.619 73.267 24.934 68.28 25.317 67.897"/></g></g></g><path d="M63.902 135.408c-.315-.516-29.377-73.712-29.502-74.305-.135-.643 5.488-5.423 12.736-10.826 20.689-15.424 42.286-26.536 61.398-31.588l4.05-1.071 14.654 34.954 14.651 35.392c-.002.241-.478.554-1.058.697-5.331 1.308-23.984 10.051-34.004 15.938-14.037 8.248-29.779 19.666-41.907 30.398-.452.4-.91.585-1.016.411zm109.634 25.849l-30.215-72.35c-.238-1.433 27.131-9.513 42.869-12.656 12.719-2.54 24.5-3.736 32.989-3.348 2.954.135 5.744.346 6.2.469.654.177 1.822 2.426 5.523 10.641l25.159 56.104c.117.285-1.301.509-4.353.689-22.312 1.316-50.61 8.861-72.928 19.442l-4.725 2.24zm-54.882 112.025l-17.613-44.243-5.831-14.61 12.693-9.631c27.229-20.661 35.704-26.089 60.187-38.549 5.486-2.792 5.692-2.863 5.997-2.065.173.455 5.238 12.565 11.254 26.911l19.11 45.753c.312.815-.444 1.388-11.456 8.679-18.897 12.513-26.341 18.399-37.874 29.949-6.453 6.463-13.941 14.767-20.848 23.121-1.962 2.374-3.628 4.315-3.702 4.315s-5.436-13.335-11.916-29.633zm138.118-6.268l-4.795-.779c-12.445-2.098-23.183-8.497-28.831-17.18l-1.474-2.266 4.124-3.038c6.362-4.686 21.285-14.514 26.05-17.157 8.134-4.511 14.734-6.859 17.817-6.338 2.829.478 4.156 2.903 3.618 6.613-.654 4.513-4.336 13.17-8.834 20.773-1.175 1.985-2.08 3.776-2.013 3.979.224.671 9.24-9.557 14.205-16.114 8.302-10.963 12.141-19.152 11.679-24.913-.222-2.772-1.252-4.7-3.128-5.86-1.019-.63-1.486-1.377-2.349-3.759-.592-1.635-1.899-4.925-2.903-7.311-1.203-2.858-1.671-4.383-1.372-4.471 9.062-2.674 22.416-7.765 31.041-11.834 2.476-1.168 4.578-2.002 4.67-1.852.655 1.059 25.139 67.451 25.004 67.802-.227.592-15.107 7.93-22.014 10.856-14.728 6.239-27.612 10.124-40.234 12.133-3.59.571-17.77 1.073-20.262.717zm57.412-93.435l-12.067-33.117-11.857-32.711c-.073-.311 1.974-1.301 5.639-2.725 13.932-5.414 27.039-12.051 38.552-19.522 4.677-3.035 13.049-9.195 16.495-12.136 1.137-.971 2.183-1.635 2.323-1.476s5.317 13.311 11.503 29.226l11.248 28.936-5.422 5.263c-14.536 14.108-31.394 26.167-51.005 36.484-5.054 2.659-5.085 2.669-5.409 1.779zm-56.44-59.335l-19.765-73.649c.075-.075 2.984-.797 6.464-1.605l11.527-2.837 5.609-1.466c.504-.121 27.734 71.863 27.324 72.233-.923.833-17.411 5.731-25.035 7.438l-5.078 1.137c-.493.111-.765-.214-1.047-1.251z" fill="#4d4d4d"/><path d="M79.809 175.585L64.54 136.932c-.137-.525.959-1.677 4.345-4.565 21.543-18.373 46.181-33.439 68.689-42.003 2.165-.824 4.15-1.497 4.411-1.497.343 0 29.107 67.649 31.176 73.322.183.502-1.239 1.394-6.988 4.379-25.079 13.023-34.084 18.905-63.489 41.466-3.944 3.026-7.31 5.501-7.48 5.501s-7.099-17.079-15.396-37.951zm62.493-88.731c-.182-.475-6.678-15.967-14.434-34.428L113.6 18.066c-.153-.74.373-.917 7.635-2.574 19.368-4.418 37.918-6.96 54.215-7.426 7.597-.218 16.456.158 20.369.863 1.25.225 2.499 2.867 26.727 56.539l3.203 7.097-9.806.013c-7.914.011-11.005.176-16.024.858-15.238 2.071-33.219 6.414-50.349 12.161l-6.627 2.119c-.171 0-.459-.388-.641-.863zm60.781 144.987l-15.55-37.18-13.296-31.726 5.591-2.567c19.313-8.868 39.805-15.006 59.3-17.763 5.07-.717 13.903-1.569 16.273-1.569 1.052 0 1.245.376 7.645 14.897l20.004 47.257c0 .184-1.424.234-3.165.112-11.681-.822-29.806 5.993-53.032 19.938-3.03 1.82-14.051 9.006-20.539 13.394l-.976.66zM276.18 70.607l-13.211-36.2c.179-.161 2.482-.936 5.12-1.722 25.765-7.673 47.697-19.473 56.314-30.298.662-.832 1.267-1.436 1.343-1.343.359.442 26.874 68.913 26.898 69.462.034.756-4.41 4.537-10.816 9.202-9.21 6.707-17.566 11.659-29.433 17.443-7.358 3.586-21.055 9.361-22.203 9.361-.278 0-6.085-14.881-14.011-35.906zm-8.125 81.759l-9.803-36.237 2.137-.43c6.599-1.327 22.608-5.817 27.209-7.63l1.854-.731 11.431 31.33 12.317 33.691.886 2.361-6.408 2.898c-3.524 1.594-8.652 3.788-11.395 4.875-5.568 2.207-16.945 6.1-17.844 6.107-.447.003-2.847-8.371-10.384-36.233zm59.367 56.664l-12.538-33.916c.002-.14 2.463-1.537 5.47-3.104 18.785-9.791 36.232-22.28 50.431-36.099l5.464-5.318.417 1.099 12.146 31.211 11.904 30.761c.268.996-3.473 6.105-7.76 10.595-7.442 7.795-19.619 17.421-34.339 27.145-9.325 6.16-17.608 11.288-18.234 11.288-.231 0-6.064-15.147-12.962-33.661z" fill="#f2f2f2"/></svg>