<?xml version="1.0" encoding="utf-8"?>
<!-- Generator: Adobe Illustrator 25.4.1, SVG Export Plug-In . SVG Version: 6.00 Build 0)  -->
<svg version="1.1" id="Слой_1" xmlns:v="https://vecta.io/nano"
	 xmlns="http://www.w3.org/2000/svg" xmlns:xlink="http://www.w3.org/1999/xlink" x="0px" y="0px" viewBox="0 0 1000 297.4"
	 style="enable-background:new 0 0 1000 297.4;" xml:space="preserve">
<style type="text/css">
	.st0{clip-path:url(#SVGID_00000006666784954423888120000001260677801876658098_);fill:#015AB9;}
	.st1{clip-path:url(#SVGID_00000089561813363500005270000004716215640831215515_);fill:#FED502;}
	.st2{fill:#FFFFFF;}
</style>
<g id="OBJECTS">
	<g>
		<g>
			<g>
				<defs>
					<path id="SVGID_1_" d="M269.7,133.8c15.2-20,16.7-38.5,34.9-56.6c25.4-12.8,17.8-25,11.9-47.6c18.6-18.9,67.2-15.1,91.8,5.8
						c10.3-11.2,19.8,9.9,29.3-3.4c5.5,10.9,15.5,5.5,22.9,5.5c4.6,2.3,6.9,7.6,11.8,3.6c-6.8-21.1,14.5-29.3,33.1-23.9
						c4.3-10.9,15.8-5.3,24.7-9.9c28.4-5.8,21.7,23.4,26,36.8c14.4,4.5,22.5-0.6,26.1,18.2c-0.1,19,33.1,14.3,46,8.8
						c8.3,23.2,88.4,8.7,59.5,45.2c8.6,3.4,10.5,6,0,8.9c23.7,47-35,22.3-30.8,60.6c-11.9,5.5-26.5,6.8-32.8,18.9
						c-11-4.2-34.6,6-37.6,20.9c-12.2,5.1,2.5-2.9-1.9-8.7c-5.2,0.8-5.9,5.4-8,9.6c-40.7-1.1-14.5,3.9,4.6,19.9
						c2.8,21.8,27-0.5,39.1,3.9c-0.3,28.6-28.7,2.7-35.6,23c-9.2-0.2-18.6,3.1-19.6,13c-37.5,22.4-3.4-35.5-47.7-28.6
						c1.1-13.8,46.2-20.6,20.3-28.5c-8.6-1.1-41.2,1.2-33-10c-2-5.2-8.3,1.8-9.7-4.5c6.3-6.4,11.9,5.6,18.9,0.9
						c-27.3-25.4-43.9,22.7-69,30.8c9.3,22.2-1.8,2.6-11.3,9.2c-46,12.2,3.7-22.5-4.8-39.3c6.2-4.6,34,12.1,26.5-5
						c-7.3-11-10.3-22-17.5-30.8c-2.8-6.3,1.8-16.4-6.7-18.9c-12.6-4.1-22.2-17.4-35.5-16.9c-20.4,7.5-40.2,12.3-59,22
						C317.5,147.2,281.7,160.8,269.7,133.8z"/>
				</defs>
				<clipPath id="SVGID_00000073680375319878996620000010379597157716062619_">
					<use xlink:href="#SVGID_1_"  style="overflow:visible;"/>
				</clipPath>
				
					<rect x="260.8" y="5.8" style="clip-path:url(#SVGID_00000073680375319878996620000010379597157716062619_);fill:#015AB9;" width="437" height="169.2"/>
			</g>
			<g>
				<defs>
					<path id="SVGID_00000142148775524410242520000003869308009005456006_" d="M269.7,133.8c15.2-20,16.7-38.5,34.9-56.6
						c25.4-12.8,17.8-25,11.9-47.6c18.6-18.9,67.2-15.1,91.8,5.8c10.3-11.2,19.8,9.9,29.3-3.4c5.5,10.9,15.5,5.5,22.9,5.5
						c4.6,2.3,6.9,7.6,11.8,3.6c-6.8-21.1,14.5-29.3,33.1-23.9c4.3-10.9,15.8-5.3,24.7-9.9c28.4-5.8,21.7,23.4,26,36.8
						c14.4,4.5,22.5-0.6,26.1,18.2c-0.1,19,33.1,14.3,46,8.8c8.3,23.2,88.4,8.7,59.5,45.2c8.6,3.4,10.5,6,0,8.9
						c23.7,47-35,22.3-30.8,60.6c-11.9,5.5-26.5,6.8-32.8,18.9c-11-4.2-34.6,6-37.6,20.9c-12.2,5.1,2.5-2.9-1.9-8.7
						c-5.2,0.8-5.9,5.4-8,9.6c-40.7-1.1-14.5,3.9,4.6,19.9c2.8,21.8,27-0.5,39.1,3.9c-0.3,28.6-28.7,2.7-35.6,23
						c-9.2-0.2-18.6,3.1-19.6,13c-37.5,22.4-3.4-35.5-47.7-28.6c1.1-13.8,46.2-20.6,20.3-28.5c-8.6-1.1-41.2,1.2-33-10
						c-2-5.2-8.3,1.8-9.7-4.5c6.3-6.4,11.9,5.6,18.9,0.9c-27.3-25.4-43.9,22.7-69,30.8c9.3,22.2-1.8,2.6-11.3,9.2
						c-46,12.2,3.7-22.5-4.8-39.3c6.2-4.6,34,12.1,26.5-5c-7.3-11-10.3-22-17.5-30.8c-2.8-6.3,1.8-16.4-6.7-18.9
						c-12.6-4.1-22.2-17.4-35.5-16.9c-20.4,7.5-40.2,12.3-59,22C317.5,147.2,281.7,160.8,269.7,133.8z"/>
				</defs>
				<clipPath id="SVGID_00000055702621645519545730000015204794682628945828_">
					<use xlink:href="#SVGID_00000142148775524410242520000003869308009005456006_"  style="overflow:visible;"/>
				</clipPath>
				<path style="clip-path:url(#SVGID_00000055702621645519545730000015204794682628945828_);fill:#FED502;" d="M697.8,291.7h-437
					V141.9c12-4,28.1,2.9,39.7-4.9c5.8,2.4,10.4,8.5,17.3,2.4c9.6,12,18.8-5.3,31.1,2.4c25.6,1.4,49.1-1.2,75,0
					c9.9,8.2,19.9-7,32.3,2.4c2.3,2.4,5.8-2.4,10.3-2.4c17.6-3,31.3-0.4,49.7-0.1c5.5-14.7,11.5,5.8,17.3,2.5
					c9.8-1.8,46.2-8,41.5,2.4c6.9,2.4,10.4-10.9,15-6c11.9,6.3,21.9-0.7,33,1.2c6.2-3.7,13.1-2.5,16.5,3.6
					c6.8-5.3,13.7-4.7,21.6-3.6c15.4,3.3,0.8,6.2,22.3,0C716.2,120.6,689.7,286.9,697.8,291.7z"/>
			</g>
		</g>
	</g>
</g>
<path class="st2" d="M521.4,45.1c14-9,62.5,27.4,32.1,18.2c-17.8-16-43.1-10.5-59.6,3.6C479.4,57.9,512.7,45.1,521.4,45.1z
	 M521.4,59.2c12.3-7.9,47.3,20.8,23.1,14.8c-11.8-10.7-29-7.3-39.8,2.6C488.9,72.5,514.1,58.7,521.4,59.2z M523.7,73
	c9.4-4.8,30.5,14.7,12.7,12.5c-7.6-8.8-16.3-1.2-24,0.9C503,81,517.9,73.1,523.7,73z M522.9,90.6c15.1-5.5,8,11.9,9.9,19.4
	c-5,1.2-5.4-2.1-5.8-6.2c-2.4,2.5,0.4,7.8-6.4,6.2C523.9,103.4,515.7,95.2,522.9,90.6 M525.6,94.5c-4.3,2.7,2.9,7.2,3.4,2.2
	C529.2,95,527.1,93.7,525.6,94.5z M477.7,107.6c9.4-9.4,22.3,6.6,11.6,14.2c-9.4,6.1-11.5,17.1-10.2,27.5c1.3,13.8,7.1,7.5,13.2,0.8
	c8.8-8.5,21.5,6,12,13.7c-5.4,6.3-18.8,15.7-20.2,24.4c-15.7-2.1,16.6-23.9,18.7-30.8c-5.8-15.9-18.4,16-30.9,9.2
	c-2.7-10.8,11.9,2,4-10.4c-5-14.1-1.3-30.6,11.3-39.3c4.5-17.1-14.7,1-17.8,5.5c-10.6,13.9-6.1,43.2-7.1,59.7
	C456,212.1,450.5,115.2,477.7,107.6z M560.2,111.9c8.1-19.5,31.1,8.3,32.9,19.4c0.6,11.1,9.4,56.2-2.8,57c14-83.9-49-94.4-13.9-60.3
	c10,9.6-7.8,36.2,5,34c-0.4,13.8-19.5-2.7-23.6-8.3c-23.2-0.8,19.4,24.4,16.2,34.6c-7-0.1-18-20.7-25.9-25.2
	c-9.9-19.4,15.8-17.3,22.2-3.5C584.8,132.1,563.1,129.7,560.2,111.9z M498.1,112h57.1C563.3,119.5,490.2,119.6,498.1,112z
	 M496.6,121.7c11.8-2.3,10.7,17.3-0.7,13.7C489.2,133.4,489.7,123,496.6,121.7 M497.1,126.5c-4.2,2.5,2.3,7.2,3.4,2.4
	C500.8,127.2,498.7,125.7,497.1,126.5z M512.4,121.5c19.4,2.1,32.4-9.2,28.5,19C521.6,138.5,508.6,149.7,512.4,121.5 M517.2,126.3
	c-3.7,14.6,10.7,8.2,19,9.5C539.9,121.2,525.5,127.5,517.2,126.3z M553.9,121.6c9.4-1.9,11.7,13,2.2,14.1
	C547.2,136.9,545.1,123.2,553.9,121.6 M554.4,126.5c-4.3,2.1,1.6,7.4,3.2,2.8C558.1,127.5,556.1,125.7,554.4,126.5z M492.4,140.3
	c32.6-15.3,27.1,42.9,10,26.2c17.9-3,8.6-30.7-7.4-22.2C484.4,159.3,479.7,149.4,492.4,140.3z M542.9,141.5
	c8.1-10.9,35.9,7.1,21.7,11.6c-1.4-11.4-18.3-13.7-22.6-3c-3.2,6.8,1.6,15.6,9.1,16.5C544.5,181.5,527,147.9,542.9,141.5z"/>
<path class="st2" d="M524.3,154.8c4.2-0.6,5.4,0.5,4.8,4.8C524.9,160.2,523.6,159.2,524.3,154.8z M510,173.9
	c7.2,2.4,40-7.3,33.3,9.5c2.8,1.4,23.5-4,19,4.7c-14.3,1.5-108.6-0.7-52.3-4.7C510.1,183.4,510,173.9,510,173.9 M514.8,178.6
	c-5,9.2,21.2,3.1,23.8,4.8C543.6,174.2,517.4,180.3,514.8,178.6z"/>
</svg>
