<?xml version="1.0" encoding="UTF-8" standalone="no" ?>
<!DOCTYPE svg PUBLIC "-//W3C//DTD SVG 1.1//EN" "http://www.w3.org/Graphics/SVG/1.1/DTD/svg11.dtd">
<svg xmlns="http://www.w3.org/2000/svg" xmlns:xlink="http://www.w3.org/1999/xlink" version="1.1" width="500" height="500" viewBox="0 0 500 500" xml:space="preserve">
<desc>Created with Fabric.js 3.6.3</desc>
<defs>
</defs>
<g transform="matrix(0.5 0 0 0.5 389.3950000000001 254.35199999999992)" style=""  ><path fill="#F2F2F2" opacity="1" d="M-206.88 5.48C-194.52 5.48-184.54-2.24-184.54-21.01C-184.54-39.66-194.52-47.38-206.88-47.38L-261.41-47.38L-261.41 37.32L-252.85 37.32L-252.85 5.48L-225.77 5.48L-197.02 37.32L-185.97 37.32L-214.60 5.48ZM-206.88-39.07C-199.27-39.07-192.98-33.72-192.98-21.01C-192.98-8.06-199.27-2.72-206.88-2.72L-252.85-2.72L-252.85-39.07Z"/><path fill="#F2F2F2" opacity="1" d="M-123.12 38.98C-98.41 38.98-79.29 28.65-79.29-4.85C-79.29-39.42-99.60-49.05-123.48-49.05C-148.19-49.05-167.32-38.71-167.32-5.21C-167.32 29.36-147.00 38.98-123.12 38.98ZM-87.60-4.74C-87.60 23.90-104.23 30.90-123.12 30.90C-142.37 30.90-158.88 23.66-158.88-5.09C-158.88-33.72-142.61-40.85-123.60-40.85C-104.12-40.85-87.60-33.37-87.60-4.74Z"/><path fill="#F2F2F2" opacity="1" d="M-48.28 37.32L-48.28-47.38L-56.83-47.38L-56.83 37.32Z"/></g><g transform="matrix(0.13 0 0 0.13 185.22000000000006 250.71999999999997)"  >
<rect style="stroke: none; stroke-width: 1; stroke-dasharray: none; stroke-linecap: butt; stroke-dashoffset: 0; stroke-linejoin: miter; stroke-miterlimit: 4; fill: rgb(0,0,0); fill-rule: evenodd; opacity: 1;"  x="-393.5" y="-393.5" rx="0" ry="0" width="787" height="787" />
</g>
<g transform="matrix(1 0 0 1 183.87000000000006 249.93999999999997)"  >
<g style=""   >
		<g transform="matrix(1 0 0 1 0.5351582411276183 -14.489198785990599)"  >
<path style="stroke: none; stroke-width: 1; stroke-dasharray: none; stroke-linecap: butt; stroke-dashoffset: 0; stroke-linejoin: miter; stroke-miterlimit: 4; fill: rgb(242,242,242); fill-rule: nonzero; opacity: 1;"  transform=" translate(-35.03515824112762, -20.0108012140094)" d="M 34.3930664 26.4525757 c -1.2304688 0 -2.3710938 -0.0610352 -2.8603516 -0.1811523 c -1.9853516 -0.4936523 -3.7714844 -1.4863281 -5.1669922 -2.871582 l -7.5224609 -7.5229492 c -0.390625 -0.390625 -0.390625 -1.0234375 0 -1.4140625 s 1.0234375 -0.390625 1.4140625 0 l 7.5195312 7.5200195 c 1.1542969 1.1445312 2.5791016 1.9350586 4.234375 2.347168 c 0.7792969 0.190918 4.9003906 0.1606445 5.7871094 -0.1000977 c 1.0214844 -0.2929688 3.7548828 -2.3793945 5.2382812 -3.6254883 l 6.7783203 -6.7436523 c 0.390625 -0.390625 1.0234375 -0.3886719 1.4140625 0.0039062 c 0.3896484 0.3916016 0.3876953 1.0249023 -0.0039062 1.4140625 l -6.8398438 6.800293 c -0.7568359 0.640625 -4.3115234 3.578125 -6.0292969 4.0717773 C 37.6635742 26.3534546 35.956543 26.4525757 34.3930664 26.4525757 z" stroke-linecap="round" />
</g>
		<g transform="matrix(1 0 0 1 0.45117182499999586 0.48504642500000195)"  >
<path style="stroke: none; stroke-width: 1; stroke-dasharray: none; stroke-linecap: butt; stroke-dashoffset: 0; stroke-linejoin: miter; stroke-miterlimit: 4; fill: rgb(242,242,242); fill-rule: nonzero; opacity: 1;"  transform=" translate(-34.951171824999996, -34.985046425)" d="M 34.949707 39.7523804 c -1.2216797 0 -2.4433594 -0.4648438 -3.3730469 -1.3945312 c -1.859375 -1.8598633 -1.859375 -4.8857422 0 -6.7456055 c 1.859375 -1.859375 4.8867188 -1.859375 6.7460938 0 c 0.9013672 0.9008789 1.3974609 2.0986328 1.3974609 3.3725586 c 0 1.2744141 -0.4960938 2.472168 -1.3974609 3.3730469 C 37.3930664 39.2875366 36.1713867 39.7523804 34.949707 39.7523804 z M 34.949707 32.2167358 c -0.7089844 0 -1.4189453 0.2700195 -1.9589844 0.8095703 c -1.0791016 1.0800781 -1.0791016 2.8374023 0 3.9174805 c 1.0800781 1.0791016 2.8378906 1.0800781 3.9179688 0 c 0.5234375 -0.5234375 0.8115234 -1.21875 0.8115234 -1.9589844 c 0 -0.7397461 -0.2880859 -1.4350586 -0.8115234 -1.9584961 C 36.3686523 32.4867554 35.6586914 32.2167358 34.949707 32.2167358 z" stroke-linecap="round" />
</g>
		<g transform="matrix(1 0 0 1 -26.100097649999995 -26.065002524999997)"  >
<path style="stroke: none; stroke-width: 1; stroke-dasharray: none; stroke-linecap: butt; stroke-dashoffset: 0; stroke-linejoin: miter; stroke-miterlimit: 4; fill: rgb(242,242,242); fill-rule: nonzero; opacity: 1;"  transform=" translate(-8.399902350000001, -8.434997475)" d="M 12.3295898 13.3598022 c -0.2558594 0 -0.5117188 -0.0976562 -0.7070312 -0.2924805 l -7.859375 -7.8496094 c -0.390625 -0.3901367 -0.390625 -1.0234375 -0.0009766 -1.4140625 c 0.390625 -0.3916016 1.0244141 -0.390625 1.4150391 -0.0009766 l 7.859375 7.8496094 c 0.390625 0.3901367 0.390625 1.0234375 0.0009766 1.4140625 C 12.8422852 13.262146 12.5854492 13.3598022 12.3295898 13.3598022 z" stroke-linecap="round" />
</g>
		<g transform="matrix(1 0 0 1 -19.173461925 -19.14044195)"  >
<path style="stroke: none; stroke-width: 1; stroke-dasharray: none; stroke-linecap: butt; stroke-dashoffset: 0; stroke-linejoin: miter; stroke-miterlimit: 4; fill: rgb(242,242,242); fill-rule: nonzero; opacity: 1;"  transform=" translate(-15.326538074999998, -15.35955805)" d="M 15.3256836 20.5975952 c -1.3994141 0 -2.7148438 -0.5449219 -3.7041016 -1.5341797 c -2.0419922 -2.0419922 -2.0419922 -5.3652344 0 -7.4072266 l 0 0 c 0.9892578 -0.9897461 2.3046875 -1.534668 3.7041016 -1.534668 s 2.7148438 0.5454102 3.703125 1.534668 c 0.9892578 0.9892578 1.5341797 2.3041992 1.5341797 3.7036133 s -0.5449219 2.7143555 -1.5341797 3.7036133 S 16.7250977 20.5975952 15.3256836 20.5975952 z M 13.0356445 13.0702515 c -1.2617188 1.262207 -1.2617188 3.3168945 0 4.5791016 c 1.2226562 1.2226562 3.3564453 1.2226562 4.5791016 0 c 0.6113281 -0.6118164 0.9482422 -1.4248047 0.9482422 -2.2895508 s -0.3369141 -1.6777344 -0.9482422 -2.2895508 C 16.3911133 11.8451538 14.2563477 11.8471069 13.0356445 13.0702515 L 13.0356445 13.0702515 z" stroke-linecap="round" />
</g>
		<g transform="matrix(1 0 0 1 -12.249999949999996 -26.065002475)"  >
<path style="stroke: none; stroke-width: 1; stroke-dasharray: none; stroke-linecap: butt; stroke-dashoffset: 0; stroke-linejoin: miter; stroke-miterlimit: 4; fill: rgb(242,242,242); fill-rule: nonzero; opacity: 1;"  transform=" translate(-22.250000050000004, -8.434997525)" d="M 18.3198242 13.3598022 c -0.2558594 0 -0.5126953 -0.0976562 -0.7080078 -0.293457 c -0.3896484 -0.390625 -0.3896484 -1.0239258 0.0009766 -1.4140625 l 7.8603516 -7.8496094 c 0.390625 -0.3896484 1.0244141 -0.390625 1.4150391 0.0009766 c 0.3896484 0.390625 0.3896484 1.0239258 -0.0009766 1.4140625 l -7.8603516 7.8496094 C 18.831543 13.262146 18.5756836 13.3598022 18.3198242 13.3598022 z" stroke-linecap="round" />
</g>
		<g transform="matrix(1 0 0 1 -26.100097650000002 -12.210022024999999)"  >
<path style="stroke: none; stroke-width: 1; stroke-dasharray: none; stroke-linecap: butt; stroke-dashoffset: 0; stroke-linejoin: miter; stroke-miterlimit: 4; fill: rgb(242,242,242); fill-rule: nonzero; opacity: 1;"  transform=" translate(-8.39990235, -22.289977975)" d="M 4.4702148 27.2201538 c -0.2558594 0 -0.5117188 -0.0976562 -0.7070312 -0.2929688 c -0.390625 -0.3901367 -0.390625 -1.0234375 0 -1.4140625 l 7.859375 -7.8603516 c 0.390625 -0.390625 1.0234375 -0.390625 1.4140625 0 c 0.390625 0.3901367 0.390625 1.0234375 0 1.4140625 l -7.859375 7.8603516 C 4.9819336 27.1224976 4.7260742 27.2201538 4.4702148 27.2201538 z" stroke-linecap="round" />
</g>
		<g transform="matrix(1 0 0 1 -19.173572539966813 -19.13305662305134)"  >
<path style="stroke: none; stroke-width: 1; stroke-dasharray: none; stroke-linecap: butt; stroke-dashoffset: 0; stroke-linejoin: miter; stroke-miterlimit: 4; fill: rgb(242,242,242); fill-rule: nonzero; opacity: 1;"  transform=" translate(-15.326427460033187, -15.366943376948663)" d="M 15.3432617 28.7084351 c -3.4560547 0 -6.8808594 -1.3383789 -9.4589844 -3.9106445 c -2.5214844 -2.5209961 -3.9091797 -5.8720703 -3.9091797 -9.4379883 c 0 -3.5654297 1.3876953 -6.9169922 3.9082031 -9.4370117 C 11.0883789 0.7255249 19.5610352 0.727478 24.7661133 5.921814 c 4.2978516 4.2983398 5.1513672 10.953125 2.0761719 16.1850586 c -0.2802734 0.4760742 -0.8935547 0.6342773 -1.3691406 0.3554688 c -0.4755859 -0.2802734 -0.6347656 -0.8930664 -0.3554688 -1.3691406 c 2.6142578 -4.4462891 1.8876953 -10.1030273 -1.7646484 -13.7563477 C 18.9272461 2.9198608 11.7241211 2.9188843 7.2963867 7.3378296 c -2.1416016 2.1416016 -3.3212891 4.9907227 -3.3212891 8.0219727 s 1.1796875 5.8808594 3.3222656 8.0229492 c 3.6582031 3.6489258 9.3203125 4.3789062 13.7666016 1.7744141 c 0.4765625 -0.2797852 1.0888672 -0.1196289 1.3691406 0.3574219 c 0.2783203 0.4765625 0.1191406 1.0893555 -0.3574219 1.3681641 C 19.9790039 28.1102905 17.6538086 28.7084351 15.3432617 28.7084351 z" stroke-linecap="round" />
</g>
		<g transform="matrix(1 0 0 1 27.10351565000002 -26.065002475)"  >
<path style="stroke: none; stroke-width: 1; stroke-dasharray: none; stroke-linecap: butt; stroke-dashoffset: 0; stroke-linejoin: miter; stroke-miterlimit: 4; fill: rgb(242,242,242); fill-rule: nonzero; opacity: 1;"  transform=" translate(-61.60351565000002, -8.434997525)" d="M 57.6733398 13.3598022 c -0.2558594 0 -0.5126953 -0.0976562 -0.7080078 -0.293457 c -0.3896484 -0.390625 -0.3896484 -1.0239258 0.0009766 -1.4140625 l 7.8603516 -7.8496094 c 0.390625 -0.3896484 1.0244141 -0.390625 1.4150391 0.0009766 c 0.3896484 0.390625 0.3896484 1.0239258 -0.0009766 1.4140625 l -7.8603516 7.8496094 C 58.1850586 13.262146 57.9291992 13.3598022 57.6733398 13.3598022 z" stroke-linecap="round" />
</g>
		<g transform="matrix(1 0 0 1 20.1777344 -19.14050299844427)"  >
<path style="stroke: none; stroke-width: 1; stroke-dasharray: none; stroke-linecap: butt; stroke-dashoffset: 0; stroke-linejoin: miter; stroke-miterlimit: 4; fill: rgb(242,242,242); fill-rule: nonzero; opacity: 1;"  transform=" translate(-54.6777344, -15.35949700155573)" d="M 54.6782227 20.5946655 c -1.3417969 0 -2.6826172 -0.5102539 -3.7041016 -1.53125 c -0.9892578 -0.9892578 -1.5341797 -2.3041992 -1.5341797 -3.7036133 s 0.5449219 -2.7143555 1.5341797 -3.7036133 c 2.0410156 -2.0429688 5.3642578 -2.0419922 7.4072266 0 c 0.9892578 0.9892578 1.5341797 2.3046875 1.5341797 3.7036133 c 0 1.3994141 -0.5449219 2.7143555 -1.5341797 3.7036133 C 57.3598633 20.0844116 56.019043 20.5946655 54.6782227 20.5946655 z M 54.6772461 12.1234741 c -0.8291016 0 -1.6582031 0.3154297 -2.2890625 0.9467773 c -0.6113281 0.6118164 -0.9482422 1.4248047 -0.9482422 2.2895508 s 0.3369141 1.6777344 0.9482422 2.2895508 c 1.2607422 1.2607422 3.3164062 1.2617188 4.5791016 0 c 0.6113281 -0.6118164 0.9482422 -1.4248047 0.9482422 -2.2895508 s -0.3369141 -1.6777344 -0.9482422 -2.2895508 l 0 0 C 56.3364258 12.4389038 55.5073242 12.1234741 54.6772461 12.1234741 z" stroke-linecap="round" />
</g>
		<g transform="matrix(1 0 0 1 13.25341805 -26.065002524999997)"  >
<path style="stroke: none; stroke-width: 1; stroke-dasharray: none; stroke-linecap: butt; stroke-dashoffset: 0; stroke-linejoin: miter; stroke-miterlimit: 4; fill: rgb(242,242,242); fill-rule: nonzero; opacity: 1;"  transform=" translate(-47.75341805, -8.434997475)" d="M 51.6831055 13.3598022 c -0.2558594 0 -0.5117188 -0.0976562 -0.7070312 -0.2924805 l -7.859375 -7.8496094 c -0.390625 -0.3901367 -0.390625 -1.0234375 -0.0009766 -1.4140625 c 0.390625 -0.3916016 1.0244141 -0.390625 1.4150391 -0.0009766 l 7.859375 7.8496094 c 0.390625 0.3901367 0.390625 1.0234375 0.0009766 1.4140625 C 52.1958008 13.262146 51.9389648 13.3598022 51.6831055 13.3598022 z" stroke-linecap="round" />
</g>
		<g transform="matrix(1 0 0 1 27.10351564999999 -12.210022024999999)"  >
<path style="stroke: none; stroke-width: 1; stroke-dasharray: none; stroke-linecap: butt; stroke-dashoffset: 0; stroke-linejoin: miter; stroke-miterlimit: 4; fill: rgb(242,242,242); fill-rule: nonzero; opacity: 1;"  transform=" translate(-61.60351564999999, -22.289977975)" d="M 65.5336914 27.2201538 c -0.2558594 0 -0.5117188 -0.0976562 -0.7070312 -0.2929688 l -7.8603516 -7.8603516 c -0.390625 -0.390625 -0.390625 -1.0234375 0 -1.4140625 s 1.0234375 -0.390625 1.4140625 0 l 7.8603516 7.8603516 c 0.390625 0.390625 0.390625 1.0234375 0 1.4140625 C 66.0454102 27.1224976 65.7895508 27.2201538 65.5336914 27.2201538 z" stroke-linecap="round" />
</g>
		<g transform="matrix(1 0 0 1 20.18451467197195 -19.13269043872194)"  >
<path style="stroke: none; stroke-width: 1; stroke-dasharray: none; stroke-linecap: butt; stroke-dashoffset: 0; stroke-linejoin: miter; stroke-miterlimit: 4; fill: rgb(242,242,242); fill-rule: nonzero; opacity: 1;"  transform=" translate(-54.684514671971954, -15.367309561278063)" d="M 54.6557617 28.7084351 c -2.3105469 0 -4.6347656 -0.5981445 -6.7314453 -1.8256836 c -0.4765625 -0.2788086 -0.6357422 -0.8916016 -0.3574219 -1.3681641 c 0.2792969 -0.4770508 0.8916016 -0.637207 1.3691406 -0.3574219 c 4.4462891 2.6044922 10.1083984 1.8764648 13.7675781 -1.7753906 c 2.1416016 -2.1411133 3.3212891 -4.9907227 3.3212891 -8.0219727 s -1.1796875 -5.8803711 -3.3222656 -8.0229492 c -4.4267578 -4.4174805 -11.6298828 -4.4165039 -16.0566406 0.0009766 c -3.5771484 3.5776367 -4.3603516 8.9692383 -1.9472656 13.4150391 c 0.2636719 0.4853516 0.0839844 1.0922852 -0.4023438 1.355957 c -0.484375 0.2617188 -1.0908203 0.0839844 -1.3554688 -0.4018555 c -2.7949219 -5.1494141 -1.8525391 -11.6401367 2.2919922 -15.7841797 C 50.4389648 0.7284546 58.909668 0.7265015 64.1157227 5.921814 c 2.5214844 2.5209961 3.9091797 5.8725586 3.9091797 9.4379883 c 0 3.565918 -1.3876953 6.9169922 -3.9082031 9.4370117 C 61.5375977 27.3695679 58.112793 28.7084351 54.6557617 28.7084351 z" stroke-linecap="round" />
</g>
		<g transform="matrix(1 0 0 1 -14.299804675 0.5001831250000066)"  >
<path style="stroke: none; stroke-width: 1; stroke-dasharray: none; stroke-linecap: butt; stroke-dashoffset: 0; stroke-linejoin: miter; stroke-miterlimit: 4; fill: rgb(242,242,242); fill-rule: nonzero; opacity: 1;"  transform=" translate(-20.200195325, -35.00018312500001)" d="M 15.1450195 51.402771 c -0.2558594 0 -0.5117188 -0.0976562 -0.7070312 -0.2929688 c -0.390625 -0.3901367 -0.390625 -1.0234375 0 -1.4140625 l 7.5058594 -7.5073242 c 1.1054688 -1.105957 1.9033203 -2.5244141 2.3115234 -4.1083984 v -6.1601562 c -0.4082031 -1.5834961 -1.2060547 -3.0019531 -2.3115234 -4.1079102 l -7.5058594 -7.5073242 c -0.390625 -0.390625 -0.390625 -1.0239258 0 -1.4140625 c 0.390625 -0.390625 1.0234375 -0.390625 1.4140625 0 l 7.5058594 7.5073242 c 1.390625 1.3916016 2.3828125 3.1757812 2.8691406 5.1606445 c 0.0185547 0.0776367 0.0283203 0.1577148 0.0283203 0.237793 v 6.4072266 c 0 0.0800781 -0.0097656 0.159668 -0.0283203 0.237793 c -0.4863281 1.9848633 -1.4785156 3.7695312 -2.8691406 5.1611328 l -7.5058594 7.5073242 C 15.6567383 51.3051147 15.4008789 51.402771 15.1450195 51.402771 z" stroke-linecap="round" />
</g>
		<g transform="matrix(1 0 0 1 0.5351582286270968 15.489210697502553)"  >
<path style="stroke: none; stroke-width: 1; stroke-dasharray: none; stroke-linecap: butt; stroke-dashoffset: 0; stroke-linejoin: miter; stroke-miterlimit: 4; fill: rgb(242,242,242); fill-rule: nonzero; opacity: 1;"  transform=" translate(-35.0351582286271, -49.98921069750256)" d="M 50.5200195 56.4301147 c -0.2548828 0 -0.5097656 -0.0966797 -0.7050781 -0.2910156 l -6.8398438 -6.7998047 c -1.421875 -1.1899414 -4.1552734 -3.2763672 -5.171875 -3.5683594 c -0.8916016 -0.2607422 -5.0117188 -0.2910156 -5.7958984 -0.0996094 c -1.6503906 0.4101562 -3.0761719 1.2006836 -4.2333984 2.3486328 l -7.5166016 7.5170898 c -0.390625 0.390625 -1.0234375 0.390625 -1.4140625 0 s -0.390625 -1.0234375 0 -1.4140625 l 7.5195312 -7.5200195 c 1.3994141 -1.3886719 3.1855469 -2.3813477 5.1660156 -2.8735352 c 1.1152344 -0.2724609 5.5888672 -0.2416992 6.8320312 0.1206055 c 1.7128906 0.4926758 5.2675781 3.4306641 5.9628906 4.0146484 l 6.9013672 6.8564453 c 0.3916016 0.3891602 0.3935547 1.0224609 0.0039062 1.4140625 C 51.0336914 56.3314819 50.7768555 56.4301147 50.5200195 56.4301147 z" stroke-linecap="round" />
</g>
		<g transform="matrix(1 0 0 1 14.774904353627097 0.5000582649932426)"  >
<path style="stroke: none; stroke-width: 1; stroke-dasharray: none; stroke-linecap: butt; stroke-dashoffset: 0; stroke-linejoin: miter; stroke-miterlimit: 4; fill: rgb(242,242,242); fill-rule: nonzero; opacity: 1;"  transform=" translate(-49.27490435362709, -35.00005826499324)" d="M 54.3198242 51.4203491 c -0.2548828 0 -0.5097656 -0.0966797 -0.7050781 -0.2905273 l -7.5546875 -7.5253906 c -1.3320312 -1.3217773 -2.3017578 -3.0253906 -2.7978516 -4.9213867 c -0.0214844 -0.0825195 -0.0322266 -0.1674805 -0.0322266 -0.2529297 v -6.8603516 c 0 -0.0854492 0.0107422 -0.1704102 0.0322266 -0.2529297 c 0.4960938 -1.8964844 1.4658203 -3.6000977 2.8037109 -4.9267578 l 1.1240234 -1.1342773 l 6.4248047 -6.3852539 c 0.3916016 -0.3896484 1.0244141 -0.387207 1.4140625 0.0043945 c 0.3896484 0.3920898 0.3876953 1.0249023 -0.0039062 1.4145508 l -7.5449219 7.5146484 c -1.0615234 1.0527344 -1.8359375 2.3964844 -2.25 3.8974609 v 6.5966797 c 0.4140625 1.5009766 1.1884766 2.8447266 2.2441406 3.8920898 l 1.1357422 1.1455078 l 6.4150391 6.375 c 0.3916016 0.3896484 0.3935547 1.0224609 0.0039062 1.4145508 C 54.8334961 51.3217163 54.5766602 51.4203491 54.3198242 51.4203491 z" stroke-linecap="round" />
</g>
		<g transform="matrix(1 0 0 1 -26.10009765 27.065124474999987)"  >
<path style="stroke: none; stroke-width: 1; stroke-dasharray: none; stroke-linecap: butt; stroke-dashoffset: 0; stroke-linejoin: miter; stroke-miterlimit: 4; fill: rgb(242,242,242); fill-rule: nonzero; opacity: 1;"  transform=" translate(-8.399902349999998, -61.56512447499999)" d="M 4.4702148 66.4901733 c -0.2558594 0 -0.5126953 -0.0976562 -0.7080078 -0.293457 c -0.3896484 -0.390625 -0.3896484 -1.0239258 0.0009766 -1.4140625 l 7.859375 -7.8500977 c 0.390625 -0.3896484 1.0244141 -0.390625 1.4150391 0.0009766 c 0.3896484 0.390625 0.3896484 1.0239258 -0.0009766 1.4140625 l -7.859375 7.8500977 C 4.9819336 66.3925171 4.7260742 66.4901733 4.4702148 66.4901733 z" stroke-linecap="round" />
</g>
		<g transform="matrix(1 0 0 1 -19.1730957 20.140319749999996)"  >
<path style="stroke: none; stroke-width: 1; stroke-dasharray: none; stroke-linecap: butt; stroke-dashoffset: 0; stroke-linejoin: miter; stroke-miterlimit: 4; fill: rgb(242,242,242); fill-rule: nonzero; opacity: 1;"  transform=" translate(-15.326904299999999, -54.640319749999996)" d="M 15.3256836 59.8783569 c -1.3994141 0 -2.7148438 -0.5449219 -3.7041016 -1.5341797 l 0 0 c -2.0410156 -2.0424805 -2.0410156 -5.3652344 0 -7.4072266 c 0.9892578 -0.9897461 2.3046875 -1.534668 3.7041016 -1.534668 s 2.7148438 0.5454102 3.703125 1.534668 c 0.9892578 0.9892578 1.5341797 2.3041992 1.5341797 3.7036133 c 0 1.3989258 -0.5449219 2.7143555 -1.5341797 3.7036133 S 16.7250977 59.8783569 15.3256836 59.8783569 z M 13.0356445 56.9301147 c 1.2246094 1.2226562 3.3564453 1.2226562 4.5791016 0 c 0.6113281 -0.6118164 0.9482422 -1.4248047 0.9482422 -2.2895508 s -0.3369141 -1.6777344 -0.9482422 -2.2895508 c -1.2236328 -1.2246094 -3.3583984 -1.2236328 -4.5791016 0 C 11.7739258 53.6132202 11.7739258 55.6674194 13.0356445 56.9301147 L 13.0356445 56.9301147 z" stroke-linecap="round" />
</g>
		<g transform="matrix(1 0 0 1 -12.249999949999998 27.065124424999993)"  >
<path style="stroke: none; stroke-width: 1; stroke-dasharray: none; stroke-linecap: butt; stroke-dashoffset: 0; stroke-linejoin: miter; stroke-miterlimit: 4; fill: rgb(242,242,242); fill-rule: nonzero; opacity: 1;"  transform=" translate(-22.250000050000004, -61.56512442499999)" d="M 26.1801758 66.4901733 c -0.2558594 0 -0.5117188 -0.0976562 -0.7070312 -0.2924805 l -7.8603516 -7.8500977 c -0.390625 -0.3901367 -0.390625 -1.0234375 -0.0009766 -1.4140625 c 0.390625 -0.3916016 1.0244141 -0.390625 1.4150391 -0.0009766 l 7.8603516 7.8500977 c 0.390625 0.3901367 0.390625 1.0234375 0.0009766 1.4140625 C 26.6928711 66.3925171 26.4360352 66.4901733 26.1801758 66.4901733 z" stroke-linecap="round" />
</g>
		<g transform="matrix(1 0 0 1 -26.100097649999995 13.210144024999998)"  >
<path style="stroke: none; stroke-width: 1; stroke-dasharray: none; stroke-linecap: butt; stroke-dashoffset: 0; stroke-linejoin: miter; stroke-miterlimit: 4; fill: rgb(242,242,242); fill-rule: nonzero; opacity: 1;"  transform=" translate(-8.399902350000001, -47.710144025)" d="M 12.3295898 52.6400757 c -0.2558594 0 -0.5117188 -0.0976562 -0.7070312 -0.2929688 l -7.859375 -7.8598633 c -0.390625 -0.390625 -0.390625 -1.0234375 0 -1.4140625 s 1.0234375 -0.390625 1.4140625 0 l 7.859375 7.8598633 c 0.390625 0.390625 0.390625 1.0234375 0 1.4140625 C 12.8413086 52.5424194 12.5854492 52.6400757 12.3295898 52.6400757 z" stroke-linecap="round" />
</g>
		<g transform="matrix(1 0 0 1 -19.1735411300714 20.133061497940073)"  >
<path style="stroke: none; stroke-width: 1; stroke-dasharray: none; stroke-linecap: butt; stroke-dashoffset: 0; stroke-linejoin: miter; stroke-miterlimit: 4; fill: rgb(242,242,242); fill-rule: nonzero; opacity: 1;"  transform=" translate(-15.326458869928604, -54.633061497940076)" d="M 15.324707 67.9745483 c -3.4189453 0 -6.8378906 -1.2988281 -9.4404297 -3.8969727 c -2.5214844 -2.5205078 -3.9091797 -5.8720703 -3.9091797 -9.4375 s 1.3876953 -6.9169922 3.9082031 -9.4370117 c 4.3027344 -4.2929688 10.9628906 -5.1494141 16.1914062 -2.0859375 c 0.4765625 0.2788086 0.6367188 0.8916016 0.3583984 1.3681641 c -0.2802734 0.4765625 -0.8945312 0.6362305 -1.3681641 0.3574219 c -4.4492188 -2.6035156 -10.109375 -1.875 -13.7685547 1.7753906 c -2.1416016 2.1411133 -3.3212891 4.9907227 -3.3212891 8.0219727 s 1.1796875 5.8808594 3.3222656 8.0229492 c 4.4257812 4.4169922 11.6289062 4.4179688 16.0566406 -0.0009766 c 3.6513672 -3.6523438 4.3769531 -9.3085938 1.7636719 -13.7548828 c -0.2792969 -0.4760742 -0.1201172 -1.0888672 0.3554688 -1.3691406 c 0.4755859 -0.2792969 1.0888672 -0.1201172 1.3691406 0.3554688 c 3.0751953 5.2314453 2.2216797 11.8862305 -2.0751953 16.1835938 C 22.1635742 66.6752319 18.7436523 67.9745483 15.324707 67.9745483 z" stroke-linecap="round" />
</g>
		<g transform="matrix(1 0 0 1 27.10351564999999 27.065124424999993)"  >
<path style="stroke: none; stroke-width: 1; stroke-dasharray: none; stroke-linecap: butt; stroke-dashoffset: 0; stroke-linejoin: miter; stroke-miterlimit: 4; fill: rgb(242,242,242); fill-rule: nonzero; opacity: 1;"  transform=" translate(-61.60351564999999, -61.56512442499999)" d="M 65.5336914 66.4901733 c -0.2558594 0 -0.5117188 -0.0976562 -0.7070312 -0.2924805 l -7.8603516 -7.8500977 c -0.390625 -0.3901367 -0.390625 -1.0234375 -0.0009766 -1.4140625 c 0.390625 -0.3916016 1.0244141 -0.390625 1.4150391 -0.0009766 l 7.8603516 7.8500977 c 0.390625 0.3901367 0.390625 1.0234375 0.0009766 1.4140625 C 66.0463867 66.3925171 65.7895508 66.4901733 65.5336914 66.4901733 z" stroke-linecap="round" />
</g>
		<g transform="matrix(1 0 0 1 20.1777344 20.140258701555723)"  >
<path style="stroke: none; stroke-width: 1; stroke-dasharray: none; stroke-linecap: butt; stroke-dashoffset: 0; stroke-linejoin: miter; stroke-miterlimit: 4; fill: rgb(242,242,242); fill-rule: nonzero; opacity: 1;"  transform=" translate(-54.6777344, -54.64025870155572)" d="M 54.6782227 59.8754272 c -1.3417969 0 -2.6826172 -0.5102539 -3.7041016 -1.53125 c -0.9892578 -0.9892578 -1.5341797 -2.3046875 -1.5341797 -3.7036133 c 0 -1.3994141 0.5449219 -2.7143555 1.5341797 -3.7036133 c 2.0410156 -2.0429688 5.3642578 -2.0419922 7.4072266 0 c 0.9892578 0.9892578 1.5341797 2.3041992 1.5341797 3.7036133 c 0 1.3989258 -0.5449219 2.7143555 -1.5341797 3.7036133 l 0 0 C 57.3598633 59.3651733 56.019043 59.8754272 54.6782227 59.8754272 z M 54.6772461 51.4042358 c -0.8291016 0 -1.6582031 0.3154297 -2.2890625 0.9467773 c -0.6113281 0.6118164 -0.9482422 1.4248047 -0.9482422 2.2895508 s 0.3369141 1.6777344 0.9482422 2.2895508 c 1.2626953 1.2626953 3.3183594 1.2597656 4.5791016 0 l 0 0 c 0.6113281 -0.6118164 0.9482422 -1.4248047 0.9482422 -2.2895508 s -0.3369141 -1.6777344 -0.9482422 -2.2895508 C 56.3364258 51.7201538 55.5073242 51.4042358 54.6772461 51.4042358 z M 57.6743164 57.637146 h 0.0097656 H 57.6743164 z" stroke-linecap="round" />
</g>
		<g transform="matrix(1 0 0 1 13.253418050000015 27.065124474999987)"  >
<path style="stroke: none; stroke-width: 1; stroke-dasharray: none; stroke-linecap: butt; stroke-dashoffset: 0; stroke-linejoin: miter; stroke-miterlimit: 4; fill: rgb(242,242,242); fill-rule: nonzero; opacity: 1;"  transform=" translate(-47.753418050000015, -61.56512447499999)" d="M 43.8237305 66.4901733 c -0.2558594 0 -0.5126953 -0.0976562 -0.7080078 -0.293457 c -0.3896484 -0.390625 -0.3896484 -1.0239258 0.0009766 -1.4140625 l 7.859375 -7.8500977 c 0.390625 -0.3896484 1.0244141 -0.390625 1.4150391 0.0009766 c 0.3896484 0.390625 0.3896484 1.0239258 -0.0009766 1.4140625 l -7.859375 7.8500977 C 44.3354492 66.3925171 44.0795898 66.4901733 43.8237305 66.4901733 z" stroke-linecap="round" />
</g>
		<g transform="matrix(1 0 0 1 27.103515649999988 13.210144024999998)"  >
<path style="stroke: none; stroke-width: 1; stroke-dasharray: none; stroke-linecap: butt; stroke-dashoffset: 0; stroke-linejoin: miter; stroke-miterlimit: 4; fill: rgb(242,242,242); fill-rule: nonzero; opacity: 1;"  transform=" translate(-61.60351564999999, -47.710144025)" d="M 57.6733398 52.6400757 c -0.2558594 0 -0.5117188 -0.0976562 -0.7070312 -0.2929688 c -0.390625 -0.390625 -0.390625 -1.0234375 0 -1.4140625 l 7.8603516 -7.8598633 c 0.390625 -0.390625 1.0234375 -0.390625 1.4140625 0 s 0.390625 1.0234375 0 1.4140625 l -7.8603516 7.8598633 C 58.1850586 52.5424194 57.9291992 52.6400757 57.6733398 52.6400757 z" stroke-linecap="round" />
</g>
		<g transform="matrix(1 0 0 1 20.165979390391527 20.13292461302466)"  >
<path style="stroke: none; stroke-width: 1; stroke-dasharray: none; stroke-linecap: butt; stroke-dashoffset: 0; stroke-linejoin: miter; stroke-miterlimit: 4; fill: rgb(242,242,242); fill-rule: nonzero; opacity: 1;"  transform=" translate(-54.66597939039153, -54.632924613024656)" d="M 54.6743164 67.9745483 c -3.4189453 0 -6.8378906 -1.2988281 -9.4404297 -3.8964844 c -4.2109375 -4.2109375 -5.1318359 -10.5541992 -2.2929688 -15.7851562 c 0.2646484 -0.4858398 0.8710938 -0.6645508 1.3554688 -0.4018555 c 0.4863281 0.2636719 0.6660156 0.8706055 0.4023438 1.355957 c -2.4130859 4.4462891 -1.6298828 9.8374023 1.9482422 13.4160156 c 4.4267578 4.4169922 11.6298828 4.4169922 16.0566406 -0.0009766 c 2.1416016 -2.1411133 3.3212891 -4.9907227 3.3212891 -8.0219727 s -1.1796875 -5.8808594 -3.3222656 -8.0229492 c -3.6572266 -3.6494141 -9.3193359 -4.3793945 -13.7675781 -1.7744141 c -0.4755859 0.2788086 -1.0888672 0.1191406 -1.3681641 -0.3574219 c -0.2783203 -0.4765625 -0.1181641 -1.0893555 0.3583984 -1.3681641 c 5.2314453 -3.0639648 11.8896484 -2.2070312 16.1904297 2.0849609 c 2.5214844 2.5209961 3.9091797 5.8725586 3.9091797 9.4379883 s -1.3876953 6.9169922 -3.9082031 9.4370117 C 61.5131836 66.6752319 58.0942383 67.9740601 54.6743164 67.9745483 z" stroke-linecap="round" />
</g>
</g>
</g>
</svg>