<?xml version="1.0" encoding="utf-8"?>
<!-- Generator: Adobe Illustrator 24.3.0, SVG Export Plug-In . SVG Version: 6.00 Build 0)  -->
<svg version="1.1" id="Layer_1" xmlns="http://www.w3.org/2000/svg" xmlns:xlink="http://www.w3.org/1999/xlink" x="0px" y="0px"
	 viewBox="0 0 1000.1 959.8" style="enable-background:new 0 0 1000.1 959.8;" xml:space="preserve">
<style type="text/css">
	.st0{fill:#EAEBEB;}
	.st1{fill:#F2F2F2;}
	.st2{fill:#343434;}
</style>
<g>
	<path class="st0" d="M809.6,0h0.2c31.7,78.5,62.7,157.3,94,235.9c32.1,81.1,64.2,162.2,96.2,243.3v0.6c-2.1,4.9-5.2,9.3-8.3,13.7
		c-9.3,12.9-20.2,24.4-31.7,35.3c-35.8,33.1-77.3,59.6-120.5,82c-1.3,0.7-2.6,1.4-3.8,2.1c2-2.7,5.7-2.9,7.9-5.5
		c-6.1-16-12.6-31.7-18.3-47.9C810.1,518,795,476.5,780,435c-18.7,9.4-37.9,17.6-57.6,24.6c-11.4,4-22.8,8-34.5,10.9
		c5.5,14.1,11.5,28.1,17.3,42.1c1.1,0.8,2.2,1.6,3.3,2.5c-3.7-2.5-8-4-12.5-4.4c-10.4-1.1-20.7,0.8-30.7,3.3
		c-21.3,5.5-41.4,14.4-61.3,23.7c-33.7,16.4-66.1,35.2-97.1,56.3c0.4-0.5,1.3-1.4,1.8-1.9c-13.7-31-26.1-62.4-39.4-93.5
		c-13.1-31.2-26.1-62.4-39.2-93.6c-54.6,27.4-108.3,57.6-156.6,95.2c-14.1,11.2-28.2,22.3-42.4,33.3c2,5.3,4.4,10.4,5.9,15.8
		c-27.5-69.9-55-139.8-82.5-209.7c2.7-0.8,4.6-3,6.8-4.6c14.2-11.1,28.2-22.6,42.8-33.2c44.7-33.1,94.1-59.5,145.2-81.3h0.9
		c1.1,0.8,1.1,2.5,1.8,3.7C378,284.5,404,344.7,430.1,405c55-23,111.9-42.3,170.8-51.6c12-1.4,24-2.3,35.9-4.1
		c16.8,38.3,34.1,76.5,51,114.7c-4-16.1-8.6-32.1-12.8-48.1c-11.8-43.4-23.2-86.8-35.2-130.1c0.4,1.1,0.9,2.2,1.3,3.3
		c26.7-4.9,52.6-13.1,77.8-23c20.3,56.3,40.7,112.6,61,169c29.4-13.5,58.1-28.8,84.4-47.5c15.3-10.9,29.8-22.8,43.4-35.7
		c10-9.8,19.7-19.8,29.5-29.8c-19.5-49.6-39.3-99-58.8-148.6c-26.3,20.3-52.5,41.1-81.3,57.8c-24.7,14.5-51.1,25.8-78.3,34.8
		c-14-38.3-28.1-76.5-42.2-114.8c-8.2-22.2-16.2-44.5-24.6-66.6c-6.6,1.6-13,4.2-19.8,5c25.9-6.8,51.5-14.9,76.1-25.4
		C745.5,48.8,780.1,27.3,809.6,0z"/>
	<path class="st0" d="M278.5,41.5c68.8-19.4,140.4-26.8,211.7-21.7c29,65.2,58,130.4,87,195.6c-1-1.5-1.8-3.1-2.5-4.7
		c-4.5-10.4-9.2-20.7-13.8-31.2c-14,0.4-27.9,0.1-41.8,1.6c-53,5.2-105.7,16-155.9,34.1c-4.4,1.4-8.6,3.6-13,4.7
		c-8.4-19.9-16.1-40-24.2-60c-14-35.5-28.6-70.7-42.4-106.3C281.9,49.5,280.7,45.3,278.5,41.5z"/>
	<path class="st1" d="M659.4,620.5c0.1-0.1,0.1-0.2,0.2-0.2l-0.1,0.1L659.4,620.5z"/>
	<path class="st1" d="M589.3,655.3l0.3,0.1l0.2,0.1L589.3,655.3z"/>
	<path class="st1" d="M298.2,704.7c0.3,0.3,0.9,1,1.2,1.3l-0.2,1L298.2,704.7z"/>
	<path class="st1" d="M299.4,707.8c0,0.2,0.2,0.5,0.2,0.7C299.6,708.4,299.5,708,299.4,707.8z"/>
	<path class="st2" d="M117.5,119.3c48.2-35.8,103.4-61.5,161-77.8c2.1,3.8,3.4,8,5,12c13.8,35.6,28.3,70.8,42.4,106.3
		c8.1,20,15.8,40.2,24.2,60c4.4-1.1,8.6-3.3,13-4.7c50.2-18,102.8-28.9,155.9-34.1c13.9-1.5,27.9-1.2,41.8-1.6
		c4.5,10.4,9.2,20.7,13.8,31.2c0.7,1.6,1.6,3.2,2.5,4.7c2.5,4.8,4.4,9.8,6.7,14.7c17.6,39.8,35.5,79.5,53,119.3
		c-11.9,1.7-24,2.7-35.9,4.1c-59,9.3-115.9,28.6-170.8,51.6c-26.1-60.2-52.2-120.5-78.2-180.8c-0.7-1.2-0.7-2.8-1.8-3.7h-0.8
		c-51.1,21.8-100.5,48.2-145.2,81.3c-14.6,10.6-28.6,22.1-42.8,33.2c-2.2,1.6-4.1,3.8-6.8,4.6c-24.8-62.6-49.4-125.3-73.8-188
		c-1.4-2.3,1.3-4,2.7-5.4C94.2,136.5,105.8,127.9,117.5,119.3z"/>
	<path class="st2" d="M632.4,89.7c6.8-0.8,13.2-3.4,19.8-5c8.4,22.1,16.3,44.4,24.6,66.6C691,189.5,705,227.8,719,266.1
		c27.1-9,53.6-20.3,78.3-34.8c28.9-16.7,55-37.5,81.3-57.8c19.5,49.6,39.3,99,58.8,148.6c-9.8,9.9-19.5,20-29.5,29.8
		c-13.6,12.9-28.1,24.8-43.4,35.7c-26.4,18.8-55.1,34-84.5,47.5c-20.4-56.3-40.7-112.6-61-169c-25.2,9.9-51.2,18-77.8,23
		c-0.5-1.1-0.9-2.2-1.3-3.3c-16.3-59.7-32.2-119.5-48.4-179.2c-0.8-2.3-1.3-4.7-1.4-7.1C604.3,96.8,618.3,93,632.4,89.7z"/>
	<path class="st2" d="M273.5,500.2c48.3-37.7,102-67.8,156.6-95.2c13.1,31.2,26.1,62.4,39.2,93.6c13.2,31.1,25.7,62.5,39.4,93.5
		c-0.4,0.5-1.3,1.4-1.8,1.9c-54.1,36.6-105.7,77.5-151,124.7c-12.8,13.2-24.4,27.3-35.8,41.6c-6.9-17.2-13.7-34.4-20.4-51.6
		c-0.1-0.2-0.2-0.5-0.2-0.7l-0.2-0.8l0.2-1c-0.3-0.3-0.9-1-1.2-1.3c-4.8-11.3-9.1-22.9-13.7-34.3c-15.8-40.4-32-80.7-47.6-121.1
		c-1.5-5.4-3.9-10.5-5.9-15.8C245.3,522.6,259.4,511.4,273.5,500.2z"/>
	<path class="st2" d="M722.4,459.6c19.7-7,38.9-15.2,57.6-24.6c15.1,41.5,30.1,83,45.2,124.5c5.7,16.1,12.2,31.9,18.3,47.9
		c-2.2,2.5-5.8,2.7-7.9,5.5c-23.3,11.8-47.2,22.1-71.8,30.8c-30.7,10.7-62.4,19.2-94.8,22.2c-11.9,1-23.9,1.7-35.8,0.3
		c-14.9-1-29.9-4.2-43.4-10.6l-0.2-0.1l-0.3-0.1c-7.5-3.3-14.1-8.2-20.5-13.4c-7.7-7.8-15-16.5-18.8-26.9c2.2-4,6.2-6.7,9.3-10
		c19.2-17.6,40.8-32.3,64.1-43.6c11.3-5.3,23.1-10.1,35.6-11.5c6.4-0.5,14.1,0.2,18.3,5.8c4.2,6.1,2.9,14,1.1,20.7
		c-4.9,17.8-15,33.4-24.1,49.3c1.8-1.7,3.5-3.4,5.1-5.2l0.1-0.1l0.1-0.1c13.8-15.3,27.2-31,38.4-48.4c7.4-11.8,14.6-24.3,16.7-38.3
		c1.1-6.7-0.9-14.1-6.2-18.6c-1-0.9-2.2-1.7-3.3-2.5c-5.8-14-11.8-27.9-17.3-42.1C699.6,467.5,711,463.6,722.4,459.6z"/>
	<path class="st0" d="M12.6,154.3c10.7-5,21.3-10.2,32.3-14.4C88,249.3,131.1,358.6,174,468c60.4,153.7,120.7,307.4,181,461.2
		c-24.3,11.1-49.2,20.5-73.9,30.6h-0.8c-20.8-57.9-41-116-61.4-174C145.8,577.4,72.9,369,0.2,160.6C4.2,158.2,8.4,156.3,12.6,154.3z
		"/>
</g>
</svg>
