<?xml version="1.0" encoding="UTF-8" ?>
<!DOCTYPE svg PUBLIC "-//W3C//DTD SVG 1.1//EN" "http://www.w3.org/Graphics/SVG/1.1/DTD/svg11.dtd">
<svg width="512pt" height="512pt" viewBox="0 0 512 512" version="1.1" xmlns="http://www.w3.org/2000/svg">
<g id="#ffffffff">
</g>
<g id="#000000ff">
<path fill="#000000" opacity="1.00" d=" M 237.57 14.85 C 284.79 9.81 333.84 25.19 369.47 56.64 C 374.75 61.56 381.95 66.06 382.87 73.85 C 384.21 82.67 376.03 91.39 367.08 90.25 C 359.07 89.87 354.78 82.19 348.97 77.83 C 327.95 59.98 301.78 48.20 274.40 44.74 C 231.59 38.74 186.30 53.04 155.21 83.20 C 151.72 86.87 147.37 90.51 141.98 90.29 C 134.56 90.70 127.74 84.46 127.10 77.14 C 126.65 72.85 128.19 68.31 131.24 65.24 C 159.44 36.84 197.67 18.49 237.57 14.85 Z" />
<path fill="#000000" opacity="1.00" d=" M 237.62 63.81 C 276.65 58.15 318.11 72.02 345.27 100.74 C 350.18 106.41 349.53 115.89 343.83 120.79 C 339.12 125.43 331.13 126.08 325.73 122.27 C 322.88 120.15 320.43 117.57 317.77 115.24 C 302.82 102.35 283.79 94.27 264.13 92.55 C 237.96 89.86 210.78 98.63 191.17 116.20 C 187.59 119.29 184.39 123.42 179.47 124.35 C 171.74 126.47 163.07 120.77 161.71 112.92 C 160.71 108.21 162.21 102.97 165.74 99.66 C 184.85 80.20 210.59 67.41 237.62 63.81 Z" />
<path fill="#000000" opacity="1.00" d=" M 245.56 111.77 C 269.32 108.57 294.39 117.42 310.81 134.91 C 315.67 140.43 315.35 149.82 309.82 154.80 C 304.71 160.31 295.11 160.51 289.74 155.27 C 283.47 149.09 275.70 144.30 267.10 142.18 C 251.09 137.94 233.16 142.65 221.34 154.28 C 217.67 158.42 211.61 160.09 206.33 158.49 C 201.63 157.12 197.74 153.22 196.32 148.55 C 195.04 143.69 196.03 138.14 199.60 134.46 C 211.71 121.94 228.23 113.71 245.56 111.77 Z" />
<path fill="#000000" opacity="1.00" d=" M 242.86 172.80 C 249.20 168.74 257.42 167.91 264.46 170.50 C 273.08 173.54 279.59 181.75 280.57 190.84 C 281.62 198.60 278.45 206.51 272.86 211.89 C 274.29 221.26 275.75 230.63 277.18 240.00 C 271.60 239.99 266.03 240.02 260.45 239.98 C 259.39 232.79 258.25 225.62 257.16 218.44 C 256.59 218.47 255.45 218.54 254.88 218.57 C 253.64 225.68 252.66 232.84 251.54 239.98 C 245.97 240.02 240.39 239.99 234.82 240.00 C 236.25 230.62 237.71 221.25 239.14 211.88 C 234.61 207.45 231.53 201.44 231.28 195.05 C 230.71 186.24 235.36 177.40 242.86 172.80 M 252.31 186.40 C 246.76 188.88 246.23 197.49 251.44 200.63 C 256.47 204.33 264.39 200.18 264.23 193.94 C 264.61 188.00 257.53 183.49 252.31 186.40 Z" />
<path fill="#000000" opacity="1.00" d=" M 86.04 232.03 C 91.54 226.38 99.15 222.81 107.05 222.45 C 118.64 221.68 130.27 227.98 136.03 238.05 C 141.67 247.48 141.80 259.87 136.36 269.41 C 133.86 274.02 129.91 277.57 126.25 281.25 C 118.41 289.09 110.55 296.91 102.74 304.78 C 95.10 312.44 90.75 323.19 90.85 334.01 C 90.86 348.31 90.77 362.62 90.90 376.92 C 90.97 389.92 98.92 400.76 104.11 412.14 C 114.98 401.33 125.75 390.43 136.65 379.66 C 146.62 369.87 163.28 368.26 175.00 375.82 C 187.03 383.05 192.90 398.80 188.46 412.14 C 186.70 418.11 182.82 423.16 178.34 427.36 C 162.82 442.85 147.35 458.38 131.83 473.86 C 126.54 479.23 120.83 484.31 116.75 490.71 C 112.47 497.13 109.76 504.47 108.20 512.00 L 91.50 512.00 C 93.71 496.32 101.00 481.40 112.18 470.17 C 130.31 451.99 148.47 433.85 166.63 415.71 C 169.69 412.83 172.63 409.40 173.17 405.07 C 174.40 398.66 170.73 391.86 164.89 389.09 C 159.15 386.12 151.71 387.66 147.33 392.31 C 139.31 400.28 131.33 408.31 123.33 416.30 C 116.88 422.62 110.87 429.84 102.36 433.47 C 91.01 438.83 78.17 436.60 66.07 437.06 C 66.06 431.57 66.06 426.09 66.07 420.60 C 73.93 420.44 81.82 420.97 89.66 420.23 C 86.50 413.76 83.20 407.35 80.04 400.88 C 76.16 392.86 74.24 383.94 74.33 375.04 C 74.35 361.05 74.28 347.05 74.36 333.06 C 74.46 318.45 80.40 304.03 90.60 293.59 C 100.17 283.83 109.97 274.29 119.54 264.53 C 123.90 260.14 125.17 252.94 122.31 247.41 C 119.61 241.76 113.14 238.10 106.90 239.06 C 103.14 239.44 99.78 241.51 97.21 244.20 C 84.08 257.38 70.89 270.49 57.77 283.69 C 49.44 292.13 43.86 303.21 42.01 314.93 C 39.49 330.59 37.06 346.26 34.57 361.92 C 33.60 367.90 33.02 373.94 33.04 380.01 C 33.02 417.00 33.04 454.00 33.03 490.99 C 33.00 498.04 33.62 505.12 35.21 512.00 L 18.36 512.00 C 17.00 505.08 16.50 498.01 16.51 490.96 C 16.51 454.65 16.52 418.34 16.51 382.03 C 16.14 365.87 20.05 350.08 22.23 334.17 C 24.61 321.17 25.27 307.65 30.53 295.36 C 34.31 286.25 40.03 278.01 47.01 271.07 C 60.01 258.04 73.03 245.04 86.04 232.03 Z" />
<path fill="#000000" opacity="1.00" d=" M 372.46 246.82 C 375.15 234.66 385.70 224.75 398.02 222.84 C 407.87 221.11 418.41 224.45 425.47 231.55 C 438.98 245.03 452.50 258.50 465.96 272.04 C 477.15 283.36 484.40 298.36 486.60 314.10 C 489.17 330.47 491.79 346.82 494.33 363.19 C 495.83 372.74 495.44 382.42 495.49 392.04 C 495.49 420.04 495.49 448.04 495.49 476.03 C 495.40 488.03 496.05 500.16 493.63 512.00 L 476.79 512.00 C 479.58 500.54 478.89 488.69 478.97 477.01 C 478.97 449.00 478.97 420.99 478.97 392.98 C 478.92 383.38 479.32 373.71 477.77 364.19 C 475.12 347.42 472.54 330.64 469.80 313.89 C 467.66 301.35 461.03 289.83 451.78 281.19 C 439.08 268.55 426.49 255.82 413.76 243.22 C 408.29 237.68 398.49 237.47 392.95 243.01 C 387.01 248.22 386.56 258.16 391.93 263.93 C 398.33 270.60 405.00 277.01 411.50 283.60 C 417.44 289.70 423.99 295.35 428.55 302.63 C 434.75 312.18 437.81 323.61 437.67 334.97 C 437.60 349.82 437.85 364.69 437.54 379.54 C 437.02 394.47 428.49 407.14 422.34 420.23 C 430.18 420.97 438.07 420.44 445.93 420.60 C 445.93 426.09 445.93 431.57 445.93 437.06 C 435.95 436.66 425.73 438.14 415.94 435.68 C 408.83 433.84 402.35 429.91 397.16 424.75 C 386.12 413.80 375.21 402.72 364.13 391.80 C 358.68 386.33 348.98 386.13 343.46 391.61 C 337.27 396.96 337.03 407.34 342.82 413.07 C 361.76 432.16 380.88 451.07 399.83 470.16 C 410.99 481.41 418.29 496.32 420.49 512.00 L 403.80 512.00 C 401.57 500.73 396.24 490.06 388.14 481.87 C 369.06 462.62 349.78 443.58 330.72 424.33 C 320.72 414.18 319.26 397.08 327.26 385.32 C 334.84 373.35 350.92 367.91 364.20 372.83 C 372.41 375.45 377.95 382.32 383.88 388.13 C 391.88 396.13 399.87 404.14 407.90 412.11 C 413.08 400.75 421.00 389.92 421.10 376.94 C 421.24 362.63 421.14 348.32 421.15 334.01 C 421.24 323.19 416.89 312.45 409.27 304.78 C 399.65 295.04 389.87 285.45 380.27 275.70 C 373.01 268.20 370.01 256.96 372.46 246.82 Z" />
<path fill="#000000" opacity="1.00" d=" M 156.91 247.16 C 222.97 247.16 289.03 247.16 355.09 247.16 C 355.10 252.66 355.10 258.17 355.09 263.68 C 289.06 263.70 223.02 263.64 156.99 263.71 C 156.80 258.19 156.94 252.67 156.91 247.16 Z" />
<path fill="#000000" opacity="1.00" d=" M 151.51 280.79 C 163.02 277.98 175.78 284.80 179.93 295.88 C 183.19 303.92 181.74 313.60 176.28 320.34 C 170.07 328.40 158.62 331.82 149.01 328.43 C 138.81 325.14 131.52 314.65 132.17 303.92 C 132.43 293.00 140.84 283.03 151.51 280.79 M 153.39 297.51 C 147.71 299.88 147.06 308.61 152.31 311.80 C 157.05 315.31 164.56 311.87 165.07 306.01 C 166.15 299.86 158.93 294.57 153.39 297.51 Z" />
<path fill="#000000" opacity="1.00" d=" M 206.45 280.20 C 239.48 280.19 272.52 280.18 305.55 280.20 C 305.54 302.22 305.56 324.24 305.54 346.26 C 272.51 346.26 239.49 346.26 206.46 346.26 C 206.43 324.24 206.46 302.22 206.45 280.20 M 222.98 296.72 C 222.97 307.72 222.97 318.73 222.98 329.74 C 244.99 329.74 267.01 329.74 289.02 329.74 C 289.03 318.73 289.03 307.72 289.02 296.72 C 267.01 296.71 244.99 296.71 222.98 296.72 Z" />
<path fill="#000000" opacity="1.00" d=" M 350.46 280.64 C 357.90 279.18 365.92 281.40 371.55 286.48 C 378.58 292.61 381.58 302.89 378.88 311.83 C 376.27 321.17 367.74 328.48 358.09 329.54 C 349.68 330.65 340.88 327.00 335.69 320.31 C 330.26 313.62 328.82 304.00 332.02 296.01 C 335.00 288.18 342.21 282.14 350.46 280.64 M 352.13 297.28 C 346.41 299.19 345.03 307.61 349.80 311.27 C 354.10 315.22 361.87 312.70 363.08 307.00 C 364.98 300.85 358.01 294.65 352.13 297.28 Z" />
<path fill="#000000" opacity="1.00" d=" M 136.90 345.55 C 148.29 338.97 162.00 336.60 174.95 338.88 C 188.54 341.14 201.15 348.55 209.84 359.23 C 220.81 372.45 225.37 390.75 221.69 407.56 C 217.05 430.60 197.15 449.55 173.85 452.90 C 173.03 447.46 172.20 442.02 171.38 436.59 C 182.54 434.83 192.86 428.37 199.18 418.99 C 205.81 409.48 208.06 397.10 205.21 385.87 C 202.31 373.93 193.74 363.56 182.59 358.41 C 171.00 352.90 156.81 353.31 145.59 359.56 C 134.38 365.58 126.30 377.00 124.38 389.59 C 118.95 388.69 113.50 387.93 108.07 387.11 C 110.66 369.80 121.64 354.09 136.90 345.55 Z" />
<path fill="#000000" opacity="1.00" d=" M 312.42 349.44 C 325.91 339.26 344.02 335.57 360.42 339.68 C 382.68 344.93 400.65 364.46 403.93 387.11 C 398.49 387.95 393.06 388.80 387.62 389.58 C 385.75 377.49 378.26 366.47 367.71 360.30 C 357.43 354.09 344.37 352.83 333.08 356.90 C 322.48 360.61 313.59 368.86 309.09 379.15 C 304.04 390.37 304.45 403.87 310.25 414.73 C 316.19 426.26 327.79 434.61 340.61 436.58 C 339.82 441.99 338.92 447.39 338.20 452.82 C 321.16 450.43 305.68 439.66 297.03 424.85 C 290.47 413.83 287.81 400.57 289.62 387.88 C 291.63 372.68 300.09 358.52 312.42 349.44 Z" />
<path fill="#000000" opacity="1.00" d=" M 247.75 395.81 C 253.25 395.80 258.75 395.80 264.25 395.81 C 264.26 401.31 264.26 406.82 264.25 412.32 C 258.75 412.33 253.25 412.33 247.75 412.32 C 247.74 406.82 247.74 401.31 247.75 395.81 Z" />
<path fill="#000000" opacity="1.00" d=" M 198.19 461.88 C 236.73 461.87 275.27 461.87 313.81 461.88 C 313.81 472.88 313.81 483.89 313.81 494.90 C 335.83 494.91 357.85 494.89 379.87 494.91 C 379.88 500.32 379.87 505.73 379.87 511.15 C 334.92 511.61 289.95 511.15 244.99 511.36 C 216.32 511.26 187.65 511.40 158.98 511.31 C 150.03 511.11 141.06 511.75 132.13 511.07 C 132.13 505.68 132.12 500.29 132.13 494.91 C 154.15 494.89 176.17 494.91 198.19 494.90 C 198.19 483.89 198.19 472.88 198.19 461.88 M 214.71 478.40 C 214.72 483.90 214.71 489.40 214.72 494.90 C 242.24 494.90 269.76 494.90 297.28 494.90 C 297.29 489.40 297.28 483.90 297.29 478.40 C 269.76 478.38 242.23 478.38 214.71 478.40 Z" />
</g>
</svg>
