<?xml version="1.0" encoding="utf-8"?>
<!-- Generator: Adobe Illustrator 25.1.0, SVG Export Plug-In . SVG Version: 6.00 Build 0)  -->
<svg version="1.1" id="Ebene_1" xmlns="http://www.w3.org/2000/svg" xmlns:xlink="http://www.w3.org/1999/xlink" x="0px" y="0px"
	 viewBox="0 0 512 512" style="enable-background:new 0 0 512 512;" xml:space="preserve">
<style type="text/css">
	.st0{fill:#FFFFFF;}
</style>
<g id="_x23_ffffffff">
</g>
<g id="_x23_000000ff">
	<path class="st0" d="M237.6,14.8c47.2-5,96.3,10.3,131.9,41.8c5.3,4.9,12.5,9.4,13.4,17.2c1.3,8.8-6.8,17.5-15.8,16.4
		c-8-0.4-12.3-8.1-18.1-12.4c-21-17.9-47.2-29.6-74.6-33.1c-42.8-6-88.1,8.3-119.2,38.5c-3.5,3.7-7.8,7.3-13.2,7.1
		c-7.4,0.4-14.2-5.8-14.9-13.2c-0.4-4.3,1.1-8.8,4.1-11.9C159.4,36.8,197.7,18.5,237.6,14.8z"/>
	<path class="st0" d="M237.6,63.8c39-5.7,80.5,8.2,107.6,36.9c4.9,5.7,4.3,15.2-1.4,20.1c-4.7,4.6-12.7,5.3-18.1,1.5
		c-2.9-2.1-5.3-4.7-8-7c-14.9-12.9-34-21-53.6-22.7c-26.2-2.7-53.4,6.1-73,23.6c-3.6,3.1-6.8,7.2-11.7,8.2
		c-7.7,2.1-16.4-3.6-17.8-11.4c-1-4.7,0.5-9.9,4-13.3C184.9,80.2,210.6,67.4,237.6,63.8z"/>
	<path class="st0" d="M245.6,111.8c23.8-3.2,48.8,5.7,65.2,23.1c4.9,5.5,4.5,14.9-1,19.9c-5.1,5.5-14.7,5.7-20.1,0.5
		c-6.3-6.2-14-11-22.6-13.1c-16-4.2-33.9,0.5-45.8,12.1c-3.7,4.1-9.7,5.8-15,4.2c-4.7-1.4-8.6-5.3-10-9.9
		c-1.3-4.9-0.3-10.4,3.3-14.1C211.7,121.9,228.2,113.7,245.6,111.8z"/>
	<path class="st0" d="M242.9,172.8c6.3-4.1,14.6-4.9,21.6-2.3c8.6,3,15.1,11.2,16.1,20.3c1,7.8-2.1,15.7-7.7,21.1
		c1.4,9.4,2.9,18.7,4.3,28.1c-5.6,0-11.1,0-16.7,0c-1.1-7.2-2.2-14.4-3.3-21.5c-0.6,0-1.7,0.1-2.3,0.1c-1.2,7.1-2.2,14.3-3.3,21.4
		c-5.6,0-11.1,0-16.7,0c1.4-9.4,2.9-18.8,4.3-28.1c-4.5-4.4-7.6-10.4-7.9-16.8C230.7,186.2,235.4,177.4,242.9,172.8 M252.3,186.4
		c-5.6,2.5-6.1,11.1-0.9,14.2c5,3.7,13-0.5,12.8-6.7C264.6,188,257.5,183.5,252.3,186.4z"/>
	<path class="st0" d="M86,232c5.5-5.6,13.1-9.2,21-9.6c11.6-0.8,23.2,5.5,29,15.6c5.6,9.4,5.8,21.8,0.3,31.4
		c-2.5,4.6-6.4,8.2-10.1,11.8c-7.8,7.8-15.7,15.7-23.5,23.5c-7.6,7.7-12,18.4-11.9,29.2c0,14.3-0.1,28.6,0.1,42.9
		c0.1,13,8,23.8,13.2,35.2c10.9-10.8,21.6-21.7,32.5-32.5c10-9.8,26.6-11.4,38.4-3.8c12,7.2,17.9,23,13.5,36.3
		c-1.8,6-5.6,11-10.1,15.2c-15.5,15.5-31,31-46.5,46.5c-5.3,5.4-11,10.5-15.1,16.9c-4.3,6.4-7,13.8-8.6,21.3H91.5
		c2.2-15.7,9.5-30.6,20.7-41.8c18.1-18.2,36.3-36.3,54.5-54.5c3.1-2.9,6-6.3,6.5-10.6c1.2-6.4-2.4-13.2-8.3-16
		c-5.7-3-13.2-1.4-17.6,3.2c-8,8-16,16-24,24c-6.5,6.3-12.5,13.5-21,17.2c-11.3,5.4-24.2,3.1-36.3,3.6c0-5.5,0-11,0-16.5
		c7.9-0.2,15.8,0.4,23.6-0.4c-3.2-6.5-6.5-12.9-9.6-19.4c-3.9-8-5.8-16.9-5.7-25.8c0-14-0.1-28,0-42c0.1-14.6,6-29,16.2-39.5
		c9.6-9.8,19.4-19.3,28.9-29.1c4.4-4.4,5.6-11.6,2.8-17.1c-2.7-5.7-9.2-9.3-15.4-8.4c-3.8,0.4-7.1,2.4-9.7,5.1
		c-13.1,13.2-26.3,26.3-39.4,39.5c-8.3,8.4-13.9,19.5-15.8,31.2c-2.5,15.7-4.9,31.3-7.4,47c-1,6-1.5,12-1.5,18.1c0,37,0,74,0,111
		c0,7.1,0.6,14.1,2.2,21H18.4c-1.4-6.9-1.9-14-1.9-21c0-36.3,0-72.6,0-108.9c-0.4-16.2,3.5-32,5.7-47.9c2.4-13,3-26.5,8.3-38.8
		c3.8-9.1,9.5-17.3,16.5-24.3C60,258,73,245,86,232z"/>
	<path class="st0" d="M372.5,246.8c2.7-12.2,13.2-22.1,25.6-24c9.9-1.7,20.4,1.6,27.5,8.7c13.5,13.5,27,26.9,40.5,40.5
		c11.2,11.3,18.4,26.3,20.6,42.1c2.6,16.4,5.2,32.7,7.7,49.1c1.5,9.5,1.1,19.2,1.2,28.9c0,28,0,56,0,84c-0.1,12,0.6,24.1-1.9,36
		h-16.8c2.8-11.5,2.1-23.3,2.2-35c0-28,0-56,0-84c0-9.6,0.4-19.3-1.2-28.8c-2.6-16.8-5.2-33.5-8-50.3c-2.1-12.5-8.8-24.1-18-32.7
		c-12.7-12.6-25.3-25.4-38-38c-5.5-5.5-15.3-5.8-20.8-0.2c-5.9,5.2-6.4,15.2-1,20.9c6.4,6.7,13.1,13.1,19.6,19.7
		c5.9,6.1,12.5,11.8,17,19c6.2,9.5,9.3,21,9.1,32.3c-0.1,14.9,0.2,29.7-0.1,44.6c-0.5,14.9-9.1,27.6-15.2,40.7
		c7.8,0.7,15.7,0.2,23.6,0.4c0,5.5,0,11,0,16.5c-10-0.4-20.2,1.1-30-1.4c-7.1-1.8-13.6-5.8-18.8-10.9c-11-11-22-22-33-33
		c-5.5-5.5-15.1-5.7-20.7-0.2c-6.2,5.4-6.4,15.7-0.6,21.5c18.9,19.1,38.1,38,57,57.1c11.2,11.2,18.5,26.2,20.7,41.8h-16.7
		c-2.2-11.3-7.6-21.9-15.7-30.1c-19.1-19.2-38.4-38.3-57.4-57.5c-10-10.1-11.5-27.2-3.5-39c7.6-12,23.7-17.4,36.9-12.5
		c8.2,2.6,13.8,9.5,19.7,15.3c8,8,16,16,24,24c5.2-11.4,13.1-22.2,13.2-35.2c0.1-14.3,0-28.6,0-42.9c0.1-10.8-4.3-21.6-11.9-29.2
		c-9.6-9.7-19.4-19.3-29-29.1C373,268.2,370,257,372.5,246.8z"/>
	<path class="st0" d="M156.9,247.2c66.1,0,132.1,0,198.2,0c0,5.5,0,11,0,16.5c-66,0-132.1,0-198.1,0
		C156.8,258.2,156.9,252.7,156.9,247.2z"/>
	<path class="st0" d="M151.5,280.8c11.5-2.8,24.3,4,28.4,15.1c3.3,8,1.8,17.7-3.6,24.5c-6.2,8.1-17.7,11.5-27.3,8.1
		c-10.2-3.3-17.5-13.8-16.8-24.5C132.4,293,140.8,283,151.5,280.8 M153.4,297.5c-5.7,2.4-6.3,11.1-1.1,14.3
		c4.7,3.5,12.2,0.1,12.8-5.8C166.1,299.9,158.9,294.6,153.4,297.5z"/>
	<path class="st0" d="M206.4,280.2c33,0,66.1,0,99.1,0c0,22,0,44,0,66.1c-33,0-66.1,0-99.1,0C206.4,324.2,206.5,302.2,206.4,280.2
		 M223,296.7c0,11,0,22,0,33c22,0,44,0,66,0c0-11,0-22,0-33C267,296.7,245,296.7,223,296.7z"/>
	<path class="st0" d="M350.5,280.6c7.4-1.5,15.5,0.8,21.1,5.8c7,6.1,10,16.4,7.3,25.3c-2.6,9.3-11.1,16.7-20.8,17.7
		c-8.4,1.1-17.2-2.5-22.4-9.2c-5.4-6.7-6.9-16.3-3.7-24.3C335,288.2,342.2,282.1,350.5,280.6 M352.1,297.3c-5.7,1.9-7.1,10.3-2.3,14
		c4.3,4,12.1,1.4,13.3-4.3C365,300.9,358,294.6,352.1,297.3z"/>
	<path class="st0" d="M136.9,345.5c11.4-6.6,25.1-8.9,38.1-6.7c13.6,2.3,26.2,9.7,34.9,20.4c11,13.2,15.5,31.5,11.9,48.3
		c-4.6,23-24.5,42-47.8,45.3c-0.8-5.4-1.7-10.9-2.5-16.3c11.2-1.8,21.5-8.2,27.8-17.6c6.6-9.5,8.9-21.9,6-33.1
		c-2.9-11.9-11.5-22.3-22.6-27.5c-11.6-5.5-25.8-5.1-37,1.1c-11.2,6-19.3,17.4-21.2,30c-5.4-0.9-10.9-1.7-16.3-2.5
		C110.7,369.8,121.6,354.1,136.9,345.5z"/>
	<path class="st0" d="M312.4,349.4c13.5-10.2,31.6-13.9,48-9.8c22.3,5.2,40.2,24.8,43.5,47.4c-5.4,0.8-10.9,1.7-16.3,2.5
		c-1.9-12.1-9.4-23.1-19.9-29.3c-10.3-6.2-23.3-7.5-34.6-3.4c-10.6,3.7-19.5,12-24,22.2c-5,11.2-4.6,24.7,1.2,35.6
		c5.9,11.5,17.5,19.9,30.4,21.8c-0.8,5.4-1.7,10.8-2.4,16.2c-17-2.4-32.5-13.2-41.2-28c-6.6-11-9.2-24.3-7.4-37
		C291.6,372.7,300.1,358.5,312.4,349.4z"/>
	<path class="st0" d="M247.8,395.8c5.5,0,11,0,16.5,0c0,5.5,0,11,0,16.5c-5.5,0-11,0-16.5,0C247.7,406.8,247.7,401.3,247.8,395.8z"
		/>
	<path class="st0" d="M198.2,461.9c38.5,0,77.1,0,115.6,0c0,11,0,22,0,33c22,0,44,0,66.1,0c0,5.4,0,10.8,0,16.2
		c-44.9,0.5-89.9,0-134.9,0.2c-28.7-0.1-57.3,0-86,0c-8.9-0.2-17.9,0.4-26.8-0.2c0-5.4,0-10.8,0-16.2c22,0,44,0,66.1,0
		C198.2,483.9,198.2,472.9,198.2,461.9 M214.7,478.4c0,5.5,0,11,0,16.5c27.5,0,55,0,82.6,0c0-5.5,0-11,0-16.5
		C269.8,478.4,242.2,478.4,214.7,478.4z"/>
</g>
</svg>
